<?xml version="1.0" encoding="utf-8"?>
<!-- Generator: Adobe Illustrator 25.2.0, SVG Export Plug-In . SVG Version: 6.00 Build 0)  -->
<svg version="1.1" id="Calque_1" xmlns="http://www.w3.org/2000/svg" xmlns:xlink="http://www.w3.org/1999/xlink" x="0px" y="0px"
	 viewBox="0 0 268 62" style="enable-background:new 0 0 268 62;" xml:space="preserve">
<style type="text/css">
	.st0{fill:#1D1D1B;}
</style>
<g>
	<path d="M160.3,7.6c0,0.1,0,0.5,0,0.5l0.9,0V0.9h-24.4v0.9c0,0,0.8,0,1.1,0c0.5,0,1,0,1.5,0.3c0.9,0.5,1.2,1.4,1.2,2.3
		c0,2.8,0,31.5,0,31.5s16.1,0,18.9,0c0.6,0,1.3,0.1,1.8-0.3c0.5-0.3,0.5-0.8,0.7-1.3c0.3-1.3,0.6-2.6,0.8-3.9
		c0.1-0.6,0.2-1.2,0.3-1.8c0-0.2,0-0.2-0.2-0.3c-0.1,0-0.2,0-0.2,0c-0.2,0,0-0.1-0.2,0.1c-0.2,0.3-0.3,0.6-0.4,0.9
		c-0.5,1.1-1.1,2.3-1.9,3.2c-1.8,2-4.4,2-6.9,2c-1.4,0-5.5,0-6.2,0c-0.5,0-1.1-0.1-1.5-0.5c-0.3-0.4-0.4-0.8-0.5-1.3
		c0-0.7,0-13.7,0-13.7l12.6,0v-0.9h-12.6c0,0,0-11.1,0-12.4c0-1-0.1-2.8,1-2.8c0.5,0,6.7,0,8.1,0c1.1,0,2.2-0.1,3.2,0.4
		c0.8,0.4,1.6,1,2.1,1.7C160,5.7,160.3,6.7,160.3,7.6z"/>
	<polyline points="243.8,0.9 238.4,0.9 239.8,2.8 239.8,35.9 242.1,35.9 242.1,5.9 264.7,35.9 267.6,35.9 267.6,0.9 265.3,0.9 
		265.3,29.4 243.8,0.9 	"/>
	<path d="M179.4,0.9c2.2,0,4.4,0.1,6.5,0.5c2,0.4,4,1.1,5.5,2.5c3.1,2.9,2.5,8.3-0.3,11.1c-1.8,1.8-4.1,2.6-6.4,3.4
		c1.3,0.3,2.7,0.5,4,1.2c1.1,0.6,2.1,1.6,2.7,2.7c0.6,1.2,1,2.7,1.4,4c0.5,1.4,0.9,2.9,1.4,4.3c0.4,1.3,0.8,2.7,1.8,3.7
		c0.4,0.4,0.9,0.7,1.5,0.8c0.2,0,0.3,0.1,0.5,0.1c0.2,0,0.2,0,0.2,0l0,0.5c0,0-0.1,0-0.2,0.1c-0.2,0-0.3,0.1-0.5,0.1
		c-0.7,0.1-1.3,0.2-2,0.2c-0.6,0.1-1.2,0.1-1.8,0.1c-1.3-0.1-2.3-0.6-3-1.8c-0.8-1.2-1.1-2.7-1.5-4.1c-0.4-1.5-0.8-2.9-1.3-4.4
		c-0.4-1.4-0.7-2.8-1.5-4.1c-0.7-1.2-1.8-2.1-3.2-2.5c-0.6-0.2-1.3-0.3-2-0.3c-0.4,0-0.7-0.1-1.1-0.1c-0.2,0-0.4,0-0.6,0
		c-0.1,0-0.5,0-0.5,0v-0.9c0,0,0.7,0,0.9,0c0.5,0,1,0,1.4-0.1c2-0.2,4.1-0.9,5.4-2.4c0.8-1,1.3-2.2,1.5-3.4c0.2-1.3,0.3-2.7,0-4.1
		c-0.7-2.9-3.1-4.8-5.9-5.4c-1.4-0.3-2.8-0.4-4.3-0.3c-0.6,0.1-1.3,0.1-1.7,0.6C176,3.4,176,4.1,176,4.7c0,3.1,0,31.2,0,31.2h-4.5
		c0,0,0-30.3,0-31.1c0-0.6,0-1.2-0.2-1.7c-0.2-0.5-0.6-0.8-1-1.1c-0.5-0.3-1.1-0.3-1.7-0.3c-0.2,0-0.9,0-0.9,0V0.9
		C167.6,0.9,177.9,0.9,179.4,0.9z"/>
	<path d="M73.3,36.3c0,0,12.7,0,19,0c0.5,0,1-0.4,1.1-0.9c0.1-0.2,0.1-0.4,0.2-0.7c0-0.2,0.1-0.4,0.1-0.6c0-0.2,0.1-0.4,0.1-0.6
		c0.2-0.8,0.3-1.6,0.5-2.4c0.1-0.4,0.1-0.7,0.2-1.1c0.1-0.3,0.1-0.7,0.2-1c0-0.2,0.1-0.6,0.1-0.6l-0.5-0.1c0,0-0.4,1-0.7,1.5
		c-0.1,0.3-0.3,0.5-0.4,0.8c-0.1,0.2-0.3,0.5-0.4,0.7c-0.1,0.1-0.1,0.2-0.2,0.3c-0.1,0.1-0.1,0.2-0.2,0.3c-0.1,0.2-0.3,0.4-0.4,0.6
		c-0.1,0.2-0.3,0.3-0.4,0.5c-0.2,0.2-0.3,0.3-0.5,0.4c-0.2,0.1-0.3,0.3-0.5,0.4c-0.2,0.1-0.4,0.2-0.5,0.3c-0.4,0.2-0.8,0.3-1.2,0.4
		c-0.2,0.1-0.4,0.1-0.7,0.1c-0.1,0-0.2,0-0.4,0c-0.1,0-0.1,0-0.2,0c-0.1,0-0.2,0-0.4,0c-0.5,0-1.1,0.1-1.6,0.1c-0.7,0-1.3,0-2,0
		c-1,0-2,0-3,0c-0.1,0-0.3,0-0.4,0c-0.1,0-0.3,0-0.4,0c-0.1,0-0.2,0-0.3,0c-0.1,0-0.1,0-0.2,0c0,0-0.1,0-0.1,0c0,0-0.1,0-0.1,0
		c-0.1,0-0.2,0-0.3-0.1c-0.1,0-0.1-0.1-0.2-0.1c-0.1-0.1-0.2-0.1-0.3-0.2c0,0,0,0-0.1-0.1c0,0,0,0-0.1-0.1c-0.1-0.1-0.1-0.2-0.2-0.2
		c0-0.1-0.1-0.2-0.1-0.3c0-0.1-0.1-0.2-0.1-0.3c0,0,0-0.1,0-0.1c0,0,0-0.1,0-0.1c0-0.1,0-0.2,0-0.3c0-0.3,0-0.5,0-0.8
		c0-10.1,0-20.3,0-30.4c0-0.3,0-0.5,0-0.8c-2.8,0-5.6,0-8.4,0c0,0.3,0,0.6,0,0.9c0.5,0,1,0,1.5,0c1.3,0,2.4,1.1,2.4,2.4
		C73.3,4.9,73.3,36.3,73.3,36.3z"/>
	<path d="M31.4,32.1c-1,0.6-1.9,1.1-3,1.6C18,38.1,6.3,30.9,5.5,19.7C4.7,8.4,15.2-0.4,26.1,2.5c2.6,0.7,4.4,3,4.4,5.6
		c0.3,0,0.9,0,0.9,0s0-4.6,0-6.9C30.7,1.1,30,1,29.3,0.9c-0.3,0-0.5-0.1-0.8-0.1c-0.3,0-0.5,0-0.8-0.1c-0.5,0-1.1-0.1-1.6-0.1
		c-1.1-0.1-2.2-0.1-3.3-0.1c-0.3,0-0.5,0-0.8,0c-0.2,0-0.5,0-0.7,0c-0.4,0-0.9,0-1.3,0c-0.9,0-1.8,0.1-2.6,0.2c-0.2,0-0.4,0-0.7,0.1
		c-0.2,0-0.4,0-0.6,0.1c-0.3,0-0.6,0.1-1,0.1C8.1,2.4,2.7,7.8,1.2,14.7c-1.5,6.9,1.3,14,7,18.1C8.6,33,9,33.3,9.3,33.5
		c0.5,0.3,1.1,0.6,1.6,0.8c0.6,0.3,1.2,0.5,1.8,0.7c0.6,0.2,1.2,0.4,1.9,0.5c0.6,0.2,1.3,0.3,1.9,0.4c0.7,0.1,1.3,0.2,2,0.3
		c0.1,0,0.2,0,0.3,0c4.4,0.4,8.8-0.7,12.5-3.1c0.2-0.1,0.3-0.2,0.5-0.3"/>
	<path d="M51.9,0.6h-4.7l0.8,2.3L34.1,36.3h2.4l5.7-13.7h13.4l5.3,13.7l0,0l0,0l0,0l0,0l0,0h4.9L51.9,0.6z M42.7,21.7l6.6-15.8
		l6.1,15.8H42.7z"/>
	<path d="M219.8,0.9c-9.6-1.8-18.9,4.6-20.7,14.3s4.6,18.9,14.3,20.7c9.6,1.8,18.9-4.6,20.7-14.3S229.4,2.6,219.8,0.9z M228.9,19.4
		c-0.1,5.5-1.9,11.9-7.1,14.6c-5.7,2.9-12.5,0-15.4-5.3c-5.3-9.7-2.2-30.2,12.7-26.6C226.7,3.9,229.1,12.5,228.9,19.4z"/>
	<path d="M131.6,14.7c-1-4.5-3.7-8.4-7.5-11c-1.9-1.3-4-2.2-6.3-2.6c-3.1-0.6-6.3-0.5-9.4-0.5c-3.7,0-7.3,0-11,0c0,0.2,0,0.3,0,0.5
		c0,0,0,0.2,0,0.3c0.1,0.2,0,0.1,0.2,0.1c0.4,0,0.7,0,1.1,0c0.5,0,1.1,0.1,1.5,0.4c0.4,0.3,0.7,0.7,0.9,1.1c0.2,0.6,0.2,1.2,0.2,1.8
		c0,3,0,31,0,31s0.5,0,0.6,0c1.4,0,2.8,0.1,4.3,0.3c1.5,0.1,2.9,0.3,4.4,0.3c1.5,0,2.9-0.1,4.3-0.2c2.8-0.4,5.6-1.1,8.1-2.4
		c2.1-1.1,3.9-2.7,5.3-4.6c2.7-3.6,4-8.2,3.4-12.7C131.8,15.8,131.7,15.3,131.6,14.7z M127.3,19.3c-0.2,6.1-3,12-8.9,14.4
		c-2.7,1.1-5.7,1.4-8.6,1.2c-0.9,0-1.7-0.1-2.5-0.3c-1.2-0.2-1.2-0.1-1.3-1.2c-0.1-2.1-0.1-27.7,0-29.7c0.1-1.7,1.7-1.8,3.2-1.8
		c3.1-0.1,6.3,0.1,9.3,1.4C124.8,6.1,127.6,12.6,127.3,19.3z"/>
	<path class="st0" d="M49.2,54.4c-0.2-0.9-0.6-1.5-1.1-1.8c-0.5-0.4-1.2-0.5-2.1-0.5c-0.6,0-1.1,0.1-1.6,0.4s-0.8,0.6-1.1,1
		c-0.3,0.4-0.5,0.9-0.6,1.4c-0.1,0.5-0.2,1.1-0.2,1.7c0,0.6,0.1,1.1,0.2,1.6c0.1,0.5,0.3,1,0.6,1.4c0.3,0.4,0.6,0.8,1.1,1
		c0.5,0.3,1,0.4,1.7,0.4c0.4,0,0.8-0.1,1.2-0.2s0.7-0.3,0.9-0.6c0.3-0.2,0.5-0.5,0.7-0.9s0.3-0.7,0.4-1.1h1
		c-0.1,0.5-0.3,0.9-0.5,1.4c-0.2,0.4-0.5,0.8-0.8,1.1c-0.3,0.3-0.8,0.6-1.3,0.8c-0.5,0.2-1.1,0.3-1.7,0.3c-0.8,0-1.4-0.1-2-0.4
		c-0.5-0.3-1-0.7-1.3-1.1c-0.3-0.5-0.6-1-0.8-1.7s-0.2-1.3-0.2-2c0-1,0.1-1.8,0.4-2.4c0.2-0.7,0.6-1.2,1-1.6
		c0.4-0.4,0.9-0.7,1.5-0.9s1.2-0.3,1.8-0.3c0.5,0,1,0.1,1.4,0.2c0.4,0.1,0.8,0.3,1.2,0.6c0.3,0.3,0.6,0.6,0.8,1
		c0.2,0.4,0.4,0.9,0.5,1.4H49.2z"/>
	<path class="st0" d="M54.1,61.5v-10h0.8v3.8c0.3-0.4,0.7-0.6,1-0.9c0.4-0.2,0.8-0.3,1.3-0.3c0.4,0,0.9,0.1,1.2,0.2
		c0.4,0.2,0.7,0.4,1,0.8c0.2,0.3,0.3,0.5,0.3,0.8c0,0.3,0,0.6,0,0.9v4.7H59v-4.7c0-0.6-0.1-1.1-0.4-1.5c-0.3-0.3-0.8-0.5-1.4-0.5
		c-0.3,0-0.5,0-0.7,0.1c-0.2,0.1-0.4,0.2-0.6,0.3c-0.2,0.1-0.3,0.3-0.4,0.4c-0.1,0.2-0.2,0.3-0.3,0.5C55,56.5,55,56.8,54.9,57
		c0,0.2,0,0.4,0,0.7v3.9H54.1z"/>
	<path class="st0" d="M66.8,61.7c-0.5,0-0.9-0.1-1.3-0.3c-0.4-0.2-0.8-0.4-1.1-0.7c-0.3-0.3-0.5-0.7-0.7-1.2c-0.2-0.5-0.3-1-0.3-1.7
		c0-0.5,0.1-1,0.2-1.5c0.1-0.5,0.3-0.9,0.6-1.2c0.3-0.3,0.6-0.6,1-0.8c0.4-0.2,0.9-0.3,1.5-0.3c0.6,0,1.1,0.1,1.5,0.3
		c0.4,0.2,0.8,0.5,1,0.8c0.3,0.3,0.5,0.7,0.6,1.2c0.1,0.5,0.2,1,0.2,1.5c0,0.6-0.1,1.1-0.2,1.6c-0.2,0.5-0.4,0.9-0.7,1.2
		c-0.3,0.3-0.6,0.6-1.1,0.8C67.7,61.7,67.3,61.7,66.8,61.7z M69.2,57.9c0-0.4,0-0.8-0.1-1.2c-0.1-0.4-0.2-0.7-0.4-1
		c-0.2-0.3-0.4-0.5-0.8-0.6c-0.3-0.2-0.7-0.2-1.1-0.2c-0.4,0-0.8,0.1-1.1,0.3c-0.3,0.2-0.6,0.4-0.8,0.7c-0.2,0.3-0.3,0.6-0.4,1
		c-0.1,0.4-0.1,0.7-0.1,1.1c0,0.4,0.1,0.9,0.2,1.2c0.1,0.4,0.3,0.7,0.5,1c0.2,0.3,0.5,0.5,0.8,0.6c0.3,0.1,0.7,0.2,1.1,0.2
		c0.4,0,0.8-0.1,1.1-0.3c0.3-0.2,0.6-0.4,0.8-0.7c0.2-0.3,0.3-0.6,0.4-1C69.2,58.7,69.2,58.3,69.2,57.9z"/>
	<path class="st0" d="M78.8,56.6c-0.1-0.5-0.4-1-0.8-1.3c-0.4-0.3-0.8-0.5-1.4-0.5c-0.4,0-0.8,0.1-1.1,0.3c-0.3,0.2-0.6,0.4-0.8,0.7
		c-0.2,0.3-0.3,0.6-0.4,1c-0.1,0.4-0.1,0.7-0.1,1.1c0,0.4,0,0.8,0.1,1.1c0.1,0.4,0.2,0.7,0.4,1c0.2,0.3,0.4,0.5,0.8,0.7
		c0.3,0.2,0.7,0.3,1.1,0.3c0.6,0,1.1-0.2,1.5-0.5c0.4-0.3,0.6-0.8,0.7-1.4h0.9c-0.1,0.4-0.2,0.8-0.4,1.1c-0.2,0.3-0.4,0.6-0.6,0.8
		c-0.3,0.2-0.6,0.4-0.9,0.5c-0.4,0.1-0.8,0.2-1.2,0.2c-0.6,0-1.1-0.1-1.5-0.3c-0.4-0.2-0.8-0.5-1-0.8c-0.3-0.3-0.5-0.7-0.6-1.2
		c-0.1-0.5-0.2-1-0.2-1.5c0-0.5,0.1-1,0.2-1.4c0.1-0.5,0.4-0.9,0.6-1.2c0.3-0.4,0.6-0.6,1-0.8c0.4-0.2,0.9-0.3,1.4-0.3
		c0.8,0,1.5,0.2,2,0.6s0.8,1,1,1.9H78.8z"/>
	<path class="st0" d="M86.4,61.7c-0.5,0-0.9-0.1-1.3-0.3c-0.4-0.2-0.8-0.4-1.1-0.7c-0.3-0.3-0.5-0.7-0.7-1.2c-0.2-0.5-0.3-1-0.3-1.7
		c0-0.5,0.1-1,0.2-1.5c0.1-0.5,0.3-0.9,0.6-1.2c0.3-0.3,0.6-0.6,1-0.8c0.4-0.2,0.9-0.3,1.5-0.3c0.6,0,1.1,0.1,1.5,0.3
		c0.4,0.2,0.8,0.5,1,0.8c0.3,0.3,0.5,0.7,0.6,1.2c0.1,0.5,0.2,1,0.2,1.5c0,0.6-0.1,1.1-0.2,1.6c-0.2,0.5-0.4,0.9-0.7,1.2
		c-0.3,0.3-0.6,0.6-1.1,0.8C87.3,61.7,86.9,61.7,86.4,61.7z M88.8,57.9c0-0.4,0-0.8-0.1-1.2c-0.1-0.4-0.2-0.7-0.4-1
		c-0.2-0.3-0.4-0.5-0.8-0.6c-0.3-0.2-0.7-0.2-1.1-0.2c-0.4,0-0.8,0.1-1.1,0.3c-0.3,0.2-0.6,0.4-0.8,0.7c-0.2,0.3-0.3,0.6-0.4,1
		c-0.1,0.4-0.1,0.7-0.1,1.1c0,0.4,0.1,0.9,0.2,1.2c0.1,0.4,0.3,0.7,0.5,1c0.2,0.3,0.5,0.5,0.8,0.6c0.3,0.1,0.7,0.2,1.1,0.2
		c0.4,0,0.8-0.1,1.1-0.3c0.3-0.2,0.6-0.4,0.8-0.7c0.2-0.3,0.3-0.6,0.4-1C88.8,58.7,88.8,58.3,88.8,57.9z"/>
	<path class="st0" d="M93.5,61.5v-10h0.8v10H93.5z"/>
	<path class="st0" d="M101.8,57.4c0.2,0,0.3,0,0.6-0.1c0.2,0,0.4-0.1,0.5-0.2c0.1-0.1,0.2-0.2,0.3-0.3c0-0.2,0-0.3,0-0.4
		c0-0.4-0.1-0.8-0.4-1.1c-0.3-0.3-0.7-0.4-1.4-0.4c-0.3,0-0.6,0-0.8,0.1c-0.2,0.1-0.5,0.1-0.6,0.3c-0.2,0.1-0.3,0.3-0.4,0.5
		c-0.1,0.2-0.2,0.5-0.2,0.8h-0.8c0-0.4,0.1-0.8,0.3-1.1c0.2-0.3,0.4-0.5,0.6-0.7c0.3-0.2,0.6-0.3,0.9-0.4s0.7-0.1,1.1-0.1
		c0.4,0,0.7,0,1,0.1c0.3,0.1,0.6,0.2,0.8,0.4c0.2,0.2,0.4,0.4,0.6,0.7c0.1,0.3,0.2,0.6,0.2,1.1v3.9c0,0.3,0.1,0.5,0.2,0.6
		c0.1,0.1,0.3,0.1,0.7-0.1v0.7c-0.1,0-0.2,0-0.3,0.1c-0.1,0-0.2,0.1-0.4,0.1c-0.1,0-0.3,0-0.4,0c-0.1,0-0.3-0.1-0.3-0.1
		c-0.1-0.1-0.2-0.2-0.2-0.3c-0.1-0.1-0.1-0.2-0.1-0.3c0-0.1,0-0.2,0-0.4c-0.4,0.4-0.8,0.7-1.2,0.9c-0.5,0.2-0.9,0.3-1.5,0.3
		c-0.3,0-0.6,0-0.9-0.1c-0.3-0.1-0.5-0.2-0.8-0.4c-0.2-0.2-0.4-0.4-0.5-0.6c-0.1-0.3-0.2-0.6-0.2-0.9c0-1.2,0.8-1.9,2.5-2.2
		L101.8,57.4z M103.2,57.8c-0.4,0.1-0.7,0.2-1.1,0.3s-0.7,0.1-1.1,0.1c-0.6,0-1.1,0.2-1.5,0.4c-0.4,0.2-0.5,0.6-0.5,1.1
		c0,0.2,0,0.4,0.1,0.6c0.1,0.2,0.2,0.3,0.3,0.4c0.1,0.1,0.3,0.2,0.5,0.2c0.2,0,0.4,0.1,0.6,0.1c0.3,0,0.7,0,1-0.1
		c0.3-0.1,0.6-0.2,0.8-0.4c0.2-0.2,0.4-0.4,0.6-0.7c0.1-0.3,0.2-0.6,0.2-0.9V57.8z"/>
	<path class="st0" d="M110.9,61.6c-0.1,0-0.2,0.1-0.4,0.1c-0.2,0-0.4,0.1-0.6,0.1c-0.4,0-0.7-0.1-1-0.3c-0.2-0.2-0.3-0.6-0.3-1.1V55
		h-1v-0.7h1v-2h0.8v2h1.3V55h-1.3V60c0,0.2,0,0.3,0,0.5c0,0.1,0,0.2,0.1,0.3c0,0.1,0.1,0.1,0.2,0.2c0.1,0,0.2,0.1,0.4,0.1
		c0.1,0,0.2,0,0.3,0c0.1,0,0.2,0,0.3-0.1V61.6z"/>
	<path class="st0" d="M114.4,52.8v-1.2h0.9v1.2H114.4z M114.4,61.5v-7.2h0.8v7.2H114.4z"/>
	<path class="st0" d="M120,58.1c0,0.4,0.1,0.8,0.2,1.1c0.1,0.3,0.3,0.6,0.5,0.9s0.5,0.5,0.8,0.6c0.3,0.2,0.7,0.2,1.1,0.2
		c0.5,0,1-0.1,1.4-0.4s0.6-0.7,0.8-1.2h0.9c-0.1,0.3-0.2,0.7-0.4,0.9c-0.2,0.3-0.4,0.5-0.6,0.8c-0.2,0.2-0.5,0.4-0.9,0.5
		c-0.3,0.1-0.7,0.2-1.2,0.2c-0.6,0-1.1-0.1-1.5-0.3c-0.4-0.2-0.8-0.5-1-0.8c-0.3-0.3-0.5-0.7-0.6-1.2c-0.1-0.5-0.2-1-0.2-1.5
		c0-0.5,0.1-1,0.2-1.5c0.2-0.5,0.4-0.9,0.7-1.2c0.3-0.3,0.6-0.6,1-0.8c0.4-0.2,0.9-0.3,1.4-0.3c1,0,1.8,0.3,2.3,1
		c0.6,0.7,0.8,1.7,0.8,3H120z M124.7,57.4c0-0.3,0-0.7-0.1-1c-0.1-0.3-0.2-0.6-0.4-0.8c-0.2-0.2-0.4-0.4-0.7-0.5
		c-0.3-0.1-0.6-0.2-1-0.2c-0.4,0-0.7,0.1-1,0.2c-0.3,0.1-0.5,0.3-0.7,0.6c-0.2,0.2-0.4,0.5-0.5,0.8c-0.1,0.3-0.2,0.6-0.2,1H124.7z"
		/>
	<path class="st0" d="M130.1,61.5h-0.8v-7.2h0.8v1.3h0c0.2-0.6,0.5-1,0.9-1.2c0.4-0.2,0.9-0.3,1.5-0.3v0.9c-0.5,0-0.9,0.1-1.2,0.2
		c-0.3,0.2-0.5,0.4-0.7,0.6c-0.2,0.3-0.3,0.6-0.4,1c-0.1,0.4-0.1,0.7-0.1,1.1V61.5z"/>
	<path class="st0" d="M147.7,59c0.2-0.3,0.3-0.6,0.3-0.9c0.1-0.3,0.1-0.7,0.1-1h0.8c0,0.5-0.1,0.9-0.2,1.4c-0.1,0.5-0.3,0.9-0.5,1.3
		l1.6,1.9h-1.1l-1-1.2c-0.4,0.5-0.9,0.9-1.4,1.1c-0.5,0.2-1.1,0.3-1.8,0.3c-0.4,0-0.8-0.1-1.2-0.2c-0.4-0.1-0.7-0.3-1-0.6
		c-0.3-0.3-0.5-0.6-0.7-0.9c-0.2-0.4-0.2-0.8-0.2-1.2c0-0.4,0.1-0.7,0.2-1c0.1-0.3,0.3-0.6,0.5-0.9c0.2-0.3,0.5-0.5,0.8-0.7
		c0.3-0.2,0.6-0.4,0.9-0.5c-0.3-0.3-0.5-0.7-0.7-1c-0.2-0.4-0.3-0.8-0.3-1.2c0-0.3,0.1-0.6,0.2-0.8c0.1-0.2,0.3-0.5,0.5-0.6
		c0.2-0.2,0.4-0.3,0.7-0.4c0.3-0.1,0.6-0.1,0.9-0.1c0.3,0,0.6,0.1,0.8,0.2c0.3,0.1,0.5,0.2,0.7,0.4c0.2,0.2,0.3,0.4,0.4,0.6
		c0.1,0.2,0.2,0.5,0.2,0.7c0,0.3-0.1,0.6-0.2,0.9c-0.1,0.2-0.2,0.5-0.4,0.7c-0.2,0.2-0.4,0.4-0.6,0.5c-0.2,0.2-0.5,0.3-0.8,0.5
		L147.7,59z M144.4,56.3c-0.3,0.1-0.5,0.3-0.8,0.5s-0.4,0.4-0.6,0.6c-0.2,0.2-0.3,0.5-0.4,0.7c-0.1,0.3-0.2,0.5-0.2,0.8
		c0,0.3,0.1,0.6,0.2,0.9c0.1,0.3,0.3,0.5,0.5,0.7c0.2,0.2,0.4,0.3,0.7,0.4c0.3,0.1,0.6,0.2,0.9,0.2c0.5,0,1-0.1,1.4-0.4
		c0.4-0.2,0.8-0.6,1.1-1L144.4,56.3z M146.2,54c0.1-0.2,0.1-0.4,0.1-0.6c0-0.2-0.1-0.4-0.2-0.6c-0.1-0.2-0.3-0.3-0.4-0.4
		c-0.2-0.1-0.4-0.2-0.7-0.2c-0.2,0-0.3,0-0.5,0.1s-0.3,0.1-0.4,0.2c-0.1,0.1-0.2,0.2-0.3,0.4c-0.1,0.1-0.1,0.3-0.1,0.5
		c0,0.2,0,0.3,0.1,0.5c0.1,0.2,0.2,0.3,0.3,0.5c0.1,0.2,0.2,0.3,0.3,0.5c0.1,0.2,0.2,0.3,0.3,0.4c0.3-0.2,0.6-0.3,0.8-0.5
		C145.8,54.6,146,54.4,146.2,54z"/>
	<path class="st0" d="M159.3,61.5v-10h3.7c0.6,0,1.2,0.1,1.6,0.2c0.4,0.1,0.8,0.4,1,0.6c0.2,0.3,0.4,0.6,0.5,0.9
		c0.1,0.3,0.1,0.7,0.1,1.1c0,0.6-0.1,1-0.3,1.4c-0.2,0.4-0.5,0.6-0.9,0.9c-0.4,0.2-0.8,0.4-1.2,0.4c-0.5,0.1-0.9,0.1-1.4,0.1h-2.1
		v4.4H159.3z M162.4,56.3c0.4,0,0.8,0,1.2-0.1s0.7-0.2,0.9-0.3c0.2-0.2,0.4-0.4,0.6-0.6c0.1-0.3,0.2-0.6,0.2-1
		c0-0.6-0.2-1.1-0.6-1.4s-1.1-0.5-2-0.5h-2.4v4H162.4z"/>
	<path class="st0" d="M173.1,57.4c0.2,0,0.3,0,0.6-0.1c0.2,0,0.4-0.1,0.5-0.2c0.1-0.1,0.2-0.2,0.3-0.3c0-0.2,0-0.3,0-0.4
		c0-0.4-0.1-0.8-0.4-1.1c-0.3-0.3-0.7-0.4-1.4-0.4c-0.3,0-0.6,0-0.8,0.1c-0.2,0.1-0.5,0.1-0.6,0.3c-0.2,0.1-0.3,0.3-0.4,0.5
		c-0.1,0.2-0.2,0.5-0.2,0.8h-0.8c0-0.4,0.1-0.8,0.3-1.1c0.2-0.3,0.4-0.5,0.6-0.7c0.3-0.2,0.6-0.3,0.9-0.4s0.7-0.1,1.1-0.1
		c0.4,0,0.7,0,1,0.1c0.3,0.1,0.6,0.2,0.8,0.4c0.2,0.2,0.4,0.4,0.6,0.7c0.1,0.3,0.2,0.6,0.2,1.1v3.9c0,0.3,0.1,0.5,0.2,0.6
		c0.1,0.1,0.3,0.1,0.7-0.1v0.7c-0.1,0-0.2,0-0.3,0.1c-0.1,0-0.2,0.1-0.4,0.1c-0.1,0-0.3,0-0.4,0c-0.1,0-0.3-0.1-0.3-0.1
		c-0.1-0.1-0.2-0.2-0.2-0.3s-0.1-0.2-0.1-0.3c0-0.1,0-0.2,0-0.4c-0.4,0.4-0.8,0.7-1.2,0.9c-0.5,0.2-0.9,0.3-1.5,0.3
		c-0.3,0-0.6,0-0.9-0.1c-0.3-0.1-0.5-0.2-0.8-0.4c-0.2-0.2-0.4-0.4-0.5-0.6c-0.1-0.3-0.2-0.6-0.2-0.9c0-1.2,0.8-1.9,2.5-2.2
		L173.1,57.4z M174.5,57.8c-0.4,0.1-0.7,0.2-1.1,0.3c-0.4,0-0.7,0.1-1.1,0.1c-0.6,0-1.1,0.2-1.5,0.4c-0.4,0.2-0.5,0.6-0.5,1.1
		c0,0.2,0,0.4,0.1,0.6c0.1,0.2,0.2,0.3,0.3,0.4c0.1,0.1,0.3,0.2,0.5,0.2c0.2,0,0.4,0.1,0.6,0.1c0.3,0,0.7,0,1-0.1
		c0.3-0.1,0.6-0.2,0.8-0.4c0.2-0.2,0.4-0.4,0.6-0.7c0.1-0.3,0.2-0.6,0.2-0.9V57.8z M171.6,53.6h-0.9l1.6-1.9h0.9l1.6,1.9h-0.9
		l-1.1-1.4L171.6,53.6z"/>
	<path class="st0" d="M182.2,61.6c-0.1,0-0.2,0.1-0.4,0.1c-0.2,0-0.4,0.1-0.6,0.1c-0.4,0-0.7-0.1-1-0.3c-0.2-0.2-0.3-0.6-0.3-1.1V55
		h-1v-0.7h1v-2h0.8v2h1.3V55h-1.3V60c0,0.2,0,0.3,0,0.5c0,0.1,0,0.2,0.1,0.3c0,0.1,0.1,0.1,0.2,0.2c0.1,0,0.2,0.1,0.4,0.1
		c0.1,0,0.2,0,0.3,0c0.1,0,0.2,0,0.3-0.1V61.6z"/>
	<path class="st0" d="M185.7,52.8v-1.2h0.9v1.2H185.7z M185.7,61.5v-7.2h0.8v7.2H185.7z"/>
	<path class="st0" d="M191.2,59.3c0.1,0.6,0.4,1.1,0.7,1.3c0.3,0.3,0.8,0.4,1.5,0.4c0.3,0,0.6,0,0.8-0.1c0.2-0.1,0.4-0.2,0.5-0.3
		c0.1-0.1,0.3-0.3,0.3-0.4c0.1-0.2,0.1-0.3,0.1-0.5c0-0.4-0.1-0.6-0.3-0.8c-0.2-0.2-0.5-0.3-0.9-0.4c-0.3-0.1-0.7-0.2-1.1-0.3
		c-0.4-0.1-0.8-0.2-1.1-0.3c-0.3-0.1-0.6-0.3-0.9-0.6c-0.2-0.3-0.3-0.6-0.3-1.1c0-0.6,0.2-1.1,0.7-1.5c0.4-0.4,1.1-0.6,1.9-0.6
		c0.8,0,1.4,0.2,1.9,0.5c0.5,0.3,0.8,0.9,0.9,1.7H195c-0.1-0.6-0.3-0.9-0.6-1.2c-0.3-0.2-0.8-0.3-1.3-0.3s-0.9,0.1-1.2,0.3
		c-0.3,0.2-0.4,0.5-0.4,0.9c0,0.3,0.1,0.6,0.3,0.7c0.2,0.2,0.5,0.3,0.9,0.4c0.3,0.1,0.7,0.2,1.1,0.3c0.4,0.1,0.8,0.2,1.1,0.4
		c0.3,0.2,0.6,0.4,0.9,0.6c0.2,0.3,0.3,0.6,0.3,1.1c0,0.3-0.1,0.6-0.2,0.9c-0.1,0.3-0.4,0.5-0.6,0.7c-0.3,0.2-0.6,0.3-0.9,0.4
		c-0.4,0.1-0.7,0.1-1.2,0.1c-0.4,0-0.8-0.1-1.1-0.2c-0.3-0.1-0.6-0.3-0.8-0.5c-0.2-0.2-0.4-0.5-0.5-0.8c-0.1-0.3-0.2-0.6-0.2-1
		H191.2z"/>
	<path class="st0" d="M200.3,59.3c0.1,0.6,0.4,1.1,0.7,1.3c0.3,0.3,0.8,0.4,1.5,0.4c0.3,0,0.6,0,0.8-0.1c0.2-0.1,0.4-0.2,0.5-0.3
		c0.1-0.1,0.3-0.3,0.3-0.4c0.1-0.2,0.1-0.3,0.1-0.5c0-0.4-0.1-0.6-0.3-0.8c-0.2-0.2-0.5-0.3-0.9-0.4c-0.3-0.1-0.7-0.2-1.1-0.3
		c-0.4-0.1-0.8-0.2-1.1-0.3c-0.3-0.1-0.6-0.3-0.9-0.6c-0.2-0.3-0.3-0.6-0.3-1.1c0-0.6,0.2-1.1,0.7-1.5c0.4-0.4,1.1-0.6,1.9-0.6
		c0.8,0,1.4,0.2,1.9,0.5c0.5,0.3,0.8,0.9,0.9,1.7h-0.8c-0.1-0.6-0.3-0.9-0.6-1.2c-0.3-0.2-0.8-0.3-1.3-0.3s-0.9,0.1-1.2,0.3
		c-0.3,0.2-0.4,0.5-0.4,0.9c0,0.3,0.1,0.6,0.3,0.7c0.2,0.2,0.5,0.3,0.9,0.4c0.3,0.1,0.7,0.2,1.1,0.3c0.4,0.1,0.8,0.2,1.1,0.4
		c0.3,0.2,0.6,0.4,0.9,0.6c0.2,0.3,0.3,0.6,0.3,1.1c0,0.3-0.1,0.6-0.2,0.9c-0.1,0.3-0.4,0.5-0.6,0.7c-0.3,0.2-0.6,0.3-0.9,0.4
		c-0.4,0.1-0.7,0.1-1.2,0.1c-0.4,0-0.8-0.1-1.1-0.2c-0.3-0.1-0.6-0.3-0.8-0.5c-0.2-0.2-0.4-0.5-0.5-0.8c-0.1-0.3-0.2-0.6-0.2-1
		H200.3z"/>
	<path class="st0" d="M208.9,52.8v-1.2h0.9v1.2H208.9z M208.9,61.5v-7.2h0.8v7.2H208.9z"/>
	<path class="st0" d="M214.5,58.1c0,0.4,0.1,0.8,0.2,1.1c0.1,0.3,0.3,0.6,0.5,0.9c0.2,0.3,0.5,0.5,0.8,0.6c0.3,0.2,0.7,0.2,1.1,0.2
		c0.5,0,1-0.1,1.4-0.4s0.6-0.7,0.8-1.2h0.9c-0.1,0.3-0.2,0.7-0.4,0.9c-0.2,0.3-0.4,0.5-0.6,0.8c-0.2,0.2-0.5,0.4-0.9,0.5
		c-0.3,0.1-0.7,0.2-1.2,0.2c-0.6,0-1.1-0.1-1.5-0.3c-0.4-0.2-0.8-0.5-1-0.8c-0.3-0.3-0.5-0.7-0.6-1.2c-0.1-0.5-0.2-1-0.2-1.5
		c0-0.5,0.1-1,0.2-1.5c0.2-0.5,0.4-0.9,0.7-1.2c0.3-0.3,0.6-0.6,1-0.8c0.4-0.2,0.9-0.3,1.4-0.3c1,0,1.8,0.3,2.3,1
		c0.6,0.7,0.8,1.7,0.8,3H214.5z M219.2,57.4c0-0.3,0-0.7-0.1-1c-0.1-0.3-0.2-0.6-0.4-0.8c-0.2-0.2-0.4-0.4-0.7-0.5
		c-0.3-0.1-0.6-0.2-1-0.2s-0.7,0.1-1,0.2c-0.3,0.1-0.5,0.3-0.7,0.6c-0.2,0.2-0.4,0.5-0.5,0.8c-0.1,0.3-0.2,0.6-0.2,1H219.2z"/>
	<path class="st0" d="M224.7,61.5h-0.8v-7.2h0.8v1.3h0c0.2-0.6,0.5-1,0.9-1.2c0.4-0.2,0.9-0.3,1.5-0.3v0.9c-0.5,0-0.9,0.1-1.2,0.2
		c-0.3,0.2-0.5,0.4-0.7,0.6c-0.2,0.3-0.3,0.6-0.4,1c-0.1,0.4-0.1,0.7-0.1,1.1V61.5z"/>
</g>
</svg>
